<?xml version="1.0" encoding="utf-8"?>
<!-- Generator: Adobe Illustrator 18.0.0, SVG Export Plug-In . SVG Version: 6.00 Build 0)  -->
<!DOCTYPE svg PUBLIC "-//W3C//DTD SVG 1.1//EN" "http://www.w3.org/Graphics/SVG/1.1/DTD/svg11.dtd">
<svg version="1.1" id="Layer_1" xmlns="http://www.w3.org/2000/svg" xmlns:xlink="http://www.w3.org/1999/xlink" x="0px" y="0px"
	 viewBox="0 0 206.5 31.8" enable-background="new 0 0 206.5 31.8" xml:space="preserve">
<g>
	<g>
		<g>
			<path fill="#CC0000" d="M0,30.9V4.2h8.2v26.7H0z"/>
			<path fill="#CC0000" d="M24.4,31.3c-8,0-12.7-6-12.7-13.7c0-7.8,4.6-13.8,12.8-13.8c8,0,12.6,5.8,12.6,13.5
				C37.1,25,32.6,31.3,24.4,31.3z M24.5,9.8c-3.7,0-4,5.3-4,7.9c0,2.6,0.3,7.4,3.9,7.4c3.8,0,3.9-4.9,3.9-7.6v-0.3
				C28.3,14.7,28.2,9.8,24.5,9.8z"/>
		</g>
		<g>
			<path fill="#CC0000" d="M53.5,21.2h-4.6v9.7h-8.3V4.2h11.4c2.9,0,6,0.2,8.3,2.1c2,1.6,3,3.9,3,6.4C63.2,18.3,58.7,21.2,53.5,21.2
				z M51.7,10.3h-3v5.2h2.8c1.9,0,3.6-0.4,3.6-2.6C55.1,10.8,53.5,10.3,51.7,10.3z"/>
		</g>
		<g>
			<path fill="#006EB2" d="M74.7,31.6c-5.1,0-8.2-2.3-9.2-7.3l3.5-0.8c0.7,3.3,2.5,4.9,5.9,4.9c2.5,0,5.1-1.4,5.1-4.2
				c0-4.6-8.2-4.3-11.5-7.2c-1.4-1.2-2.2-3-2.2-4.8c0-4.6,4-7.7,8.4-7.7c2.3,0,4.6,0.8,6.2,2.5c1.1,1.2,1.5,2.4,1.9,4l-3.3,0.8
				c-0.8-2.4-2.2-4.2-5-4.2c-2.3,0-4.4,1.4-4.4,3.9c0,2.1,1.5,3.1,3.3,3.6c4.4,1.4,10.5,2.5,10.5,8.4C84,28.9,79.5,31.6,74.7,31.6z"
				/>
			<path fill="#006EB2" d="M103,28.9c-1.6,2-4.2,2.7-6.6,2.7c-7.6,0-9.3-7.2-9.3-13.4c0-6.4,1.8-13.7,9.6-13.7c2.3,0,4.4,0.7,6,2.4
				c1.6,1.8,2,4,2.5,6.2l-3.8,0.8c-0.5-3.1-0.9-6.2-4.8-6.2c-3.6,0-4.5,3-4.9,6c-0.3,1.7-0.3,3.4-0.3,5.1c0,3.7,0.4,9.5,5.4,9.5
				c3.7,0,4.3-3.2,4.6-6.2l3.8,0.5C104.8,25,104.5,27,103,28.9z"/>
			<path fill="#006EB2" d="M109.7,30.9V5.2h3.8v25.6H109.7z"/>
			<path fill="#006EB2" d="M123,18.5v0.2c0,4.1,0.7,9.7,5.9,9.7c3.3,0,4.4-2.3,5.3-5.1l3.5,0.8c-1.2,4.6-4,7.5-8.9,7.5
				c-7.5,0-9.8-6.7-9.8-13.2c0-6.3,2.4-13.9,10-13.9c3.2,0,5.8,1.5,7.3,4.3c1.8,3.3,1.8,6,1.9,9.7H123z M128.5,7.7
				c-4,0-5,4.4-5.4,7.6h10.7C133.8,11.9,132.8,7.7,128.5,7.7z"/>
			<path fill="#006EB2" d="M156.6,30.9V15.1c0-3.2,0.4-7.3-4-7.3c-5,0-5.5,5.6-5.5,9.3v13.8h-3.8V5.2h3.5v4c1.4-3.1,3.1-4.7,6.6-4.7
				c2,0,4.1,0.7,5.4,2.2c1.7,2.1,1.6,5.3,1.6,7.8v16.3H156.6z"/>
			<path fill="#006EB2" d="M181.8,28.9c-1.6,2-4.2,2.7-6.6,2.7c-7.6,0-9.3-7.2-9.3-13.4c0-6.4,1.8-13.7,9.6-13.7
				c2.3,0,4.4,0.7,6,2.4c1.6,1.8,2,4,2.5,6.2l-3.8,0.8c-0.5-3.1-0.9-6.2-4.8-6.2c-3.6,0-4.5,3-4.9,6c-0.3,1.7-0.3,3.4-0.3,5.1
				c0,3.7,0.4,9.5,5.4,9.5c3.7,0,4.3-3.2,4.6-6.2l3.8,0.5C183.7,25,183.3,27,181.8,28.9z"/>
			<path fill="#006EB2" d="M191.3,18.5v0.2c0,4.1,0.7,9.7,5.9,9.7c3.3,0,4.4-2.3,5.3-5.1l3.5,0.8c-1.2,4.6-4,7.5-8.9,7.5
				c-7.5,0-9.8-6.7-9.8-13.2c0-6.3,2.4-13.9,10-13.9c3.2,0,5.8,1.5,7.3,4.3c1.8,3.3,1.8,6,1.9,9.7H191.3z M196.8,7.7
				c-4,0-5,4.4-5.4,7.6h10.7C202.1,11.9,201,7.7,196.8,7.7z"/>
		</g>
	</g>
	<rect x="109.7" y="0.2" fill="#006EB2" width="3.8" height="3.4"/>
</g>
</svg>
